<?xml version="1.0" standalone="no"?>
<!DOCTYPE svg PUBLIC "-//W3C//DTD SVG 20010904//EN"
 "http://www.w3.org/TR/2001/REC-SVG-20010904/DTD/svg10.dtd">
<svg version="1.0" xmlns="http://www.w3.org/2000/svg"
 width="35.000000pt" height="37.000000pt" viewBox="0 0 35.000000 37.000000"
 preserveAspectRatio="xMidYMid meet">

<g transform="translate(0.000000,37.000000) scale(0.100000,-0.100000)"
fill="#000000" stroke="none">
<path d="M51 294 c-1 -44 31 -80 90 -99 40 -14 54 -24 63 -46 15 -42 40 -38
32 5 -6 30 -3 36 25 54 l31 19 -25 7 c-14 3 -33 9 -44 12 -17 5 -17 5 0 -6 42
-27 5 -39 -64 -20 -41 11 -85 48 -99 82 -8 21 -9 21 -9 -8z"/>
<path d="M260 187 c-9 -7 -14 -24 -12 -40 5 -38 -19 -71 -60 -84 -33 -11 -33
-11 -5 -12 59 -2 106 43 107 101 0 42 -8 52 -30 35z"/>
</g>
</svg>
